<svg xmlns="http://www.w3.org/2000/svg" width="548" height="281" viewBox="0 0 548 281"><g fill="#000"><circle cx="275.0" cy="3.0" r="2"/><circle cx="286.3" cy="3.1" r="2"/><circle cx="293.1" cy="3.0" r="2"/><circle cx="303.5" cy="3.1" r="2"/><circle cx="310.2" cy="3.0" r="2"/><circle cx="320.6" cy="3.1" r="2"/><circle cx="327.3" cy="3.0" r="2"/><circle cx="337.9" cy="3.0" r="2"/><circle cx="275.0" cy="9.0" r="2"/><circle cx="286.5" cy="9.0" r="2"/><circle cx="292.8" cy="9.2" r="2"/><circle cx="303.6" cy="9.0" r="2"/><circle cx="310.0" cy="9.2" r="2"/><circle cx="320.7" cy="9.0" r="2"/><circle cx="327.1" cy="9.2" r="2"/><circle cx="337.9" cy="9.0" r="2"/><circle cx="251.9" cy="15.2" r="2"/><circle cx="257.9" cy="15.2" r="2"/><circle cx="269.0" cy="15.2" r="2"/><circle cx="275.1" cy="15.2" r="2"/><circle cx="286.3" cy="15.1" r="2"/><circle cx="344.4" cy="15.2" r="2"/><circle cx="355.0" cy="15.2" r="2"/><circle cx="361.6" cy="15.2" r="2"/><circle cx="234.9" cy="21.4" r="2"/><circle cx="240.8" cy="21.3" r="2"/><circle cx="252.1" cy="21.4" r="2"/><circle cx="257.9" cy="21.3" r="2"/><circle cx="372.2" cy="21.3" r="2"/><circle cx="378.7" cy="21.3" r="2"/><circle cx="231.5" cy="29.4" r="2"/><circle cx="238.2" cy="29.3" r="2"/><circle cx="248.6" cy="29.4" r="2"/><circle cx="255.4" cy="29.3" r="2"/><circle cx="265.8" cy="29.4" r="2"/><circle cx="378.7" cy="29.3" r="2"/><circle cx="389.3" cy="29.3" r="2"/><circle cx="395.9" cy="29.3" r="2"/><circle cx="231.6" cy="35.3" r="2"/><circle cx="238.0" cy="35.5" r="2"/><circle cx="248.8" cy="35.3" r="2"/><circle cx="265.9" cy="35.3" r="2"/><circle cx="378.7" cy="35.3" r="2"/><circle cx="389.3" cy="35.3" r="2"/><circle cx="395.9" cy="35.3" r="2"/><circle cx="220.9" cy="41.6" r="2"/><circle cx="231.5" cy="41.4" r="2"/><circle cx="238.0" cy="41.6" r="2"/><circle cx="389.3" cy="41.5" r="2"/><circle cx="407.1" cy="41.4" r="2"/><circle cx="145.8" cy="47.7" r="2"/><circle cx="151.7" cy="47.6" r="2"/><circle cx="162.9" cy="47.7" r="2"/><circle cx="168.8" cy="47.6" r="2"/><circle cx="180.1" cy="47.7" r="2"/><circle cx="185.9" cy="47.6" r="2"/><circle cx="197.2" cy="47.7" r="2"/><circle cx="203.1" cy="47.6" r="2"/><circle cx="221.1" cy="47.6" r="2"/><circle cx="231.5" cy="47.7" r="2"/><circle cx="413.2" cy="47.7" r="2"/><circle cx="424.4" cy="47.6" r="2"/><circle cx="124.2" cy="55.6" r="2"/><circle cx="135.5" cy="55.7" r="2"/><circle cx="141.4" cy="55.6" r="2"/><circle cx="152.7" cy="55.7" r="2"/><circle cx="158.5" cy="55.6" r="2"/><circle cx="169.8" cy="55.7" r="2"/><circle cx="175.6" cy="55.6" r="2"/><circle cx="186.9" cy="55.7" r="2"/><circle cx="193.7" cy="55.6" r="2"/><circle cx="204.1" cy="55.7" r="2"/><circle cx="210.8" cy="55.6" r="2"/><circle cx="221.2" cy="55.7" r="2"/><circle cx="227.9" cy="55.6" r="2"/><circle cx="238.4" cy="55.7" r="2"/><circle cx="410.7" cy="55.6" r="2"/><circle cx="422.2" cy="55.6" r="2"/><circle cx="124.2" cy="61.5" r="2"/><circle cx="135.4" cy="61.5" r="2"/><circle cx="141.4" cy="61.5" r="2"/><circle cx="152.5" cy="61.5" r="2"/><circle cx="169.7" cy="61.5" r="2"/><circle cx="175.6" cy="61.5" r="2"/><circle cx="187.1" cy="61.5" r="2"/><circle cx="193.4" cy="61.8" r="2"/><circle cx="204.2" cy="61.5" r="2"/><circle cx="210.6" cy="61.8" r="2"/><circle cx="221.3" cy="61.5" r="2"/><circle cx="227.7" cy="61.8" r="2"/><circle cx="244.8" cy="61.8" r="2"/><circle cx="404.1" cy="61.5" r="2"/><circle cx="410.7" cy="61.5" r="2"/><circle cx="422.1" cy="61.7" r="2"/><circle cx="118.2" cy="67.8" r="2"/><circle cx="124.3" cy="67.8" r="2"/><circle cx="135.4" cy="67.8" r="2"/><circle cx="152.5" cy="67.8" r="2"/><circle cx="158.5" cy="67.8" r="2"/><circle cx="169.6" cy="67.8" r="2"/><circle cx="175.7" cy="67.8" r="2"/><circle cx="221.2" cy="67.7" r="2"/><circle cx="227.7" cy="67.9" r="2"/><circle cx="238.4" cy="67.7" r="2"/><circle cx="410.7" cy="67.8" r="2"/><circle cx="107.0" cy="74.0" r="2"/><circle cx="118.4" cy="74.0" r="2"/><circle cx="135.5" cy="74.0" r="2"/><circle cx="152.7" cy="74.0" r="2"/><circle cx="158.5" cy="73.8" r="2"/><circle cx="169.8" cy="74.0" r="2"/><circle cx="422.2" cy="73.8" r="2"/><circle cx="428.0" cy="74.0" r="2"/><circle cx="91.0" cy="82.0" r="2"/><circle cx="96.8" cy="81.8" r="2"/><circle cx="108.1" cy="82.0" r="2"/><circle cx="114.0" cy="81.8" r="2"/><circle cx="125.2" cy="82.0" r="2"/><circle cx="131.1" cy="81.8" r="2"/><circle cx="142.4" cy="82.0" r="2"/><circle cx="148.2" cy="81.8" r="2"/><circle cx="159.5" cy="82.0" r="2"/><circle cx="166.2" cy="81.8" r="2"/><circle cx="176.7" cy="82.0" r="2"/><circle cx="408.5" cy="81.8" r="2"/><circle cx="419.9" cy="81.8" r="2"/><circle cx="425.7" cy="82.0" r="2"/><circle cx="79.7" cy="87.8" r="2"/><circle cx="90.8" cy="87.8" r="2"/><circle cx="96.8" cy="87.8" r="2"/><circle cx="108.0" cy="87.8" r="2"/><circle cx="114.0" cy="87.8" r="2"/><circle cx="125.1" cy="87.8" r="2"/><circle cx="131.1" cy="87.8" r="2"/><circle cx="142.3" cy="87.8" r="2"/><circle cx="148.2" cy="87.8" r="2"/><circle cx="159.7" cy="87.8" r="2"/><circle cx="166.0" cy="88.0" r="2"/><circle cx="176.8" cy="87.8" r="2"/><circle cx="408.5" cy="87.8" r="2"/><circle cx="419.8" cy="88.0" r="2"/><circle cx="425.9" cy="87.8" r="2"/><circle cx="437.0" cy="88.0" r="2"/><circle cx="443.0" cy="87.8" r="2"/><circle cx="454.1" cy="88.0" r="2"/><circle cx="460.1" cy="87.8" r="2"/><circle cx="471.2" cy="88.0" r="2"/><circle cx="79.5" cy="94.0" r="2"/><circle cx="90.8" cy="94.1" r="2"/><circle cx="131.1" cy="94.1" r="2"/><circle cx="142.2" cy="94.1" r="2"/><circle cx="148.3" cy="94.1" r="2"/><circle cx="159.5" cy="94.0" r="2"/><circle cx="166.0" cy="94.2" r="2"/><circle cx="408.4" cy="94.1" r="2"/><circle cx="419.7" cy="94.0" r="2"/><circle cx="425.7" cy="94.0" r="2"/><circle cx="436.8" cy="94.0" r="2"/><circle cx="442.9" cy="94.0" r="2"/><circle cx="453.9" cy="94.0" r="2"/><circle cx="460.0" cy="94.0" r="2"/><circle cx="471.1" cy="94.0" r="2"/><circle cx="56.6" cy="100.1" r="2"/><circle cx="62.4" cy="100.2" r="2"/><circle cx="159.5" cy="100.2" r="2"/><circle cx="166.2" cy="100.1" r="2"/><circle cx="408.5" cy="100.1" r="2"/><circle cx="419.9" cy="100.1" r="2"/><circle cx="477.1" cy="100.2" r="2"/><circle cx="488.6" cy="100.2" r="2"/><circle cx="494.4" cy="100.1" r="2"/><circle cx="49.8" cy="108.2" r="2"/><circle cx="61.3" cy="108.2" r="2"/><circle cx="67.1" cy="108.1" r="2"/><circle cx="152.7" cy="108.2" r="2"/><circle cx="169.8" cy="108.2" r="2"/><circle cx="403.9" cy="108.1" r="2"/><circle cx="465.6" cy="108.1" r="2"/><circle cx="477.0" cy="108.1" r="2"/><circle cx="482.8" cy="108.2" r="2"/><circle cx="494.1" cy="108.1" r="2"/><circle cx="43.9" cy="114.2" r="2"/><circle cx="50.0" cy="114.1" r="2"/><circle cx="158.5" cy="114.1" r="2"/><circle cx="169.7" cy="114.1" r="2"/><circle cx="476.9" cy="114.2" r="2"/><circle cx="483.0" cy="114.1" r="2"/><circle cx="494.1" cy="114.2" r="2"/><circle cx="500.1" cy="114.1" r="2"/><circle cx="32.7" cy="120.2" r="2"/><circle cx="43.8" cy="120.2" r="2"/><circle cx="49.8" cy="120.2" r="2"/><circle cx="482.8" cy="120.2" r="2"/><circle cx="493.9" cy="120.2" r="2"/><circle cx="500.0" cy="120.2" r="2"/><circle cx="26.9" cy="126.4" r="2"/><circle cx="32.7" cy="126.5" r="2"/><circle cx="44.0" cy="126.4" r="2"/><circle cx="276.1" cy="126.5" r="2"/><circle cx="482.8" cy="126.5" r="2"/><circle cx="494.1" cy="126.4" r="2"/><circle cx="511.3" cy="126.4" r="2"/><circle cx="517.1" cy="126.5" r="2"/><circle cx="20.1" cy="134.5" r="2"/><circle cx="31.4" cy="134.4" r="2"/><circle cx="48.7" cy="134.5" r="2"/><circle cx="290.9" cy="134.5" r="2"/><circle cx="501.3" cy="134.4" r="2"/><circle cx="507.8" cy="134.4" r="2"/><circle cx="20.3" cy="140.4" r="2"/><circle cx="31.4" cy="140.5" r="2"/><circle cx="280.3" cy="140.6" r="2"/><circle cx="291.0" cy="140.4" r="2"/><circle cx="297.4" cy="140.6" r="2"/><circle cx="501.3" cy="140.4" r="2"/><circle cx="507.8" cy="140.4" r="2"/><circle cx="519.2" cy="140.5" r="2"/><circle cx="14.1" cy="146.5" r="2"/><circle cx="20.1" cy="146.5" r="2"/><circle cx="31.2" cy="146.5" r="2"/><circle cx="280.3" cy="146.7" r="2"/><circle cx="297.4" cy="146.7" r="2"/><circle cx="507.8" cy="146.6" r="2"/><circle cx="519.1" cy="146.5" r="2"/><circle cx="3.0" cy="152.8" r="2"/><circle cx="14.3" cy="152.7" r="2"/><circle cx="20.1" cy="152.8" r="2"/><circle cx="48.7" cy="152.8" r="2"/><circle cx="280.5" cy="152.7" r="2"/><circle cx="507.8" cy="152.7" r="2"/><circle cx="519.3" cy="152.7" r="2"/><circle cx="3.0" cy="160.8" r="2"/><circle cx="14.3" cy="160.7" r="2"/><circle cx="52.1" cy="160.8" r="2"/><circle cx="299.9" cy="160.7" r="2"/><circle cx="517.1" cy="160.8" r="2"/><circle cx="528.4" cy="160.7" r="2"/><circle cx="3.1" cy="166.6" r="2"/><circle cx="14.2" cy="166.8" r="2"/><circle cx="184.5" cy="166.6" r="2"/><circle cx="299.7" cy="166.9" r="2"/><circle cx="421.0" cy="166.6" r="2"/><circle cx="485.3" cy="166.6" r="2"/><circle cx="517.3" cy="166.6" r="2"/><circle cx="528.4" cy="166.8" r="2"/><circle cx="3.0" cy="172.8" r="2"/><circle cx="14.1" cy="172.8" r="2"/><circle cx="184.5" cy="172.9" r="2"/><circle cx="293.2" cy="172.8" r="2"/><circle cx="414.5" cy="172.9" r="2"/><circle cx="421.0" cy="172.9" r="2"/><circle cx="485.1" cy="172.8" r="2"/><circle cx="517.1" cy="172.8" r="2"/><circle cx="528.2" cy="172.8" r="2"/><circle cx="3.0" cy="179.1" r="2"/><circle cx="14.3" cy="178.9" r="2"/><circle cx="69.4" cy="178.9" r="2"/><circle cx="184.7" cy="179.1" r="2"/><circle cx="208.5" cy="178.9" r="2"/><circle cx="431.6" cy="178.9" r="2"/><circle cx="517.1" cy="179.1" r="2"/><circle cx="528.4" cy="178.9" r="2"/><circle cx="12.0" cy="186.9" r="2"/><circle cx="67.1" cy="186.9" r="2"/><circle cx="78.4" cy="187.1" r="2"/><circle cx="136.5" cy="186.9" r="2"/><circle cx="147.0" cy="187.1" r="2"/><circle cx="188.0" cy="186.9" r="2"/><circle cx="219.9" cy="186.9" r="2"/><circle cx="237.1" cy="186.9" r="2"/><circle cx="247.6" cy="186.9" r="2"/><circle cx="254.2" cy="186.9" r="2"/><circle cx="265.6" cy="186.9" r="2"/><circle cx="471.6" cy="186.9" r="2"/><circle cx="534.1" cy="186.9" r="2"/><circle cx="544.5" cy="187.1" r="2"/><circle cx="18.0" cy="192.9" r="2"/><circle cx="29.1" cy="193.1" r="2"/><circle cx="78.3" cy="192.9" r="2"/><circle cx="84.2" cy="192.9" r="2"/><circle cx="95.4" cy="192.9" r="2"/><circle cx="101.4" cy="192.9" r="2"/><circle cx="112.5" cy="192.9" r="2"/><circle cx="118.5" cy="192.9" r="2"/><circle cx="129.9" cy="192.9" r="2"/><circle cx="136.3" cy="193.1" r="2"/><circle cx="164.2" cy="192.9" r="2"/><circle cx="170.6" cy="193.1" r="2"/><circle cx="181.4" cy="192.9" r="2"/><circle cx="237.1" cy="192.9" r="2"/><circle cx="437.3" cy="192.9" r="2"/><circle cx="448.4" cy="192.9" r="2"/><circle cx="527.5" cy="192.9" r="2"/><circle cx="533.9" cy="193.1" r="2"/><circle cx="17.9" cy="199.1" r="2"/><circle cx="28.9" cy="199.1" r="2"/><circle cx="147.0" cy="199.1" r="2"/><circle cx="164.1" cy="199.1" r="2"/><circle cx="170.6" cy="199.3" r="2"/><circle cx="237.1" cy="199.2" r="2"/><circle cx="437.3" cy="199.2" r="2"/><circle cx="448.4" cy="199.2" r="2"/><circle cx="527.4" cy="199.1" r="2"/><circle cx="533.9" cy="199.3" r="2"/><circle cx="17.9" cy="205.4" r="2"/><circle cx="29.1" cy="205.2" r="2"/><circle cx="35.0" cy="205.4" r="2"/><circle cx="153.7" cy="205.2" r="2"/><circle cx="164.1" cy="205.4" r="2"/><circle cx="170.8" cy="205.2" r="2"/><circle cx="181.2" cy="205.4" r="2"/><circle cx="247.6" cy="205.2" r="2"/><circle cx="437.3" cy="205.2" r="2"/><circle cx="527.4" cy="205.4" r="2"/><circle cx="534.1" cy="205.2" r="2"/><circle cx="26.9" cy="213.2" r="2"/><circle cx="32.7" cy="213.3" r="2"/><circle cx="44.0" cy="213.2" r="2"/><circle cx="136.5" cy="213.2" r="2"/><circle cx="147.0" cy="213.3" r="2"/><circle cx="153.7" cy="213.2" r="2"/><circle cx="164.1" cy="213.3" r="2"/><circle cx="170.8" cy="213.2" r="2"/><circle cx="181.2" cy="213.3" r="2"/><circle cx="267.9" cy="213.2" r="2"/><circle cx="445.1" cy="213.3" r="2"/><circle cx="486.1" cy="213.2" r="2"/><circle cx="520.4" cy="213.2" r="2"/><circle cx="531.0" cy="213.2" r="2"/><circle cx="537.6" cy="213.2" r="2"/><circle cx="26.8" cy="219.3" r="2"/><circle cx="32.8" cy="219.2" r="2"/><circle cx="43.9" cy="219.3" r="2"/><circle cx="50.0" cy="219.2" r="2"/><circle cx="67.1" cy="219.2" r="2"/><circle cx="118.5" cy="219.2" r="2"/><circle cx="129.9" cy="219.2" r="2"/><circle cx="136.3" cy="219.4" r="2"/><circle cx="147.1" cy="219.2" r="2"/><circle cx="153.4" cy="219.4" r="2"/><circle cx="164.2" cy="219.2" r="2"/><circle cx="170.6" cy="219.4" r="2"/><circle cx="181.4" cy="219.2" r="2"/><circle cx="187.7" cy="219.4" r="2"/><circle cx="285.0" cy="219.3" r="2"/><circle cx="291.0" cy="219.2" r="2"/><circle cx="302.1" cy="219.3" r="2"/><circle cx="308.2" cy="219.2" r="2"/><circle cx="319.3" cy="219.2" r="2"/><circle cx="325.3" cy="219.2" r="2"/><circle cx="434.5" cy="219.4" r="2"/><circle cx="445.3" cy="219.2" r="2"/><circle cx="485.9" cy="219.4" r="2"/><circle cx="496.7" cy="219.2" r="2"/><circle cx="503.3" cy="219.2" r="2"/><circle cx="513.8" cy="219.2" r="2"/><circle cx="520.4" cy="219.2" r="2"/><circle cx="531.0" cy="219.2" r="2"/><circle cx="537.6" cy="219.2" r="2"/><circle cx="43.8" cy="225.3" r="2"/><circle cx="84.3" cy="225.4" r="2"/><circle cx="95.4" cy="225.4" r="2"/><circle cx="101.4" cy="225.4" r="2"/><circle cx="129.8" cy="225.3" r="2"/><circle cx="136.3" cy="225.6" r="2"/><circle cx="147.0" cy="225.3" r="2"/><circle cx="153.4" cy="225.6" r="2"/><circle cx="164.1" cy="225.3" r="2"/><circle cx="170.6" cy="225.6" r="2"/><circle cx="181.2" cy="225.3" r="2"/><circle cx="187.7" cy="225.6" r="2"/><circle cx="215.7" cy="225.4" r="2"/><circle cx="256.6" cy="225.3" r="2"/><circle cx="273.8" cy="225.3" r="2"/><circle cx="284.9" cy="225.3" r="2"/><circle cx="290.9" cy="225.3" r="2"/><circle cx="302.0" cy="225.3" r="2"/><circle cx="308.0" cy="225.3" r="2"/><circle cx="319.3" cy="225.4" r="2"/><circle cx="325.3" cy="225.4" r="2"/><circle cx="434.5" cy="225.6" r="2"/><circle cx="445.1" cy="225.3" r="2"/><circle cx="451.6" cy="225.6" r="2"/><circle cx="479.4" cy="225.3" r="2"/><circle cx="485.9" cy="225.6" r="2"/><circle cx="496.7" cy="225.4" r="2"/><circle cx="503.3" cy="225.4" r="2"/><circle cx="513.8" cy="225.4" r="2"/><circle cx="520.4" cy="225.4" r="2"/><circle cx="531.0" cy="225.4" r="2"/><circle cx="49.8" cy="231.6" r="2"/><circle cx="61.3" cy="231.6" r="2"/><circle cx="67.1" cy="231.5" r="2"/><circle cx="78.4" cy="231.6" r="2"/><circle cx="84.2" cy="231.5" r="2"/><circle cx="95.5" cy="231.6" r="2"/><circle cx="101.4" cy="231.5" r="2"/><circle cx="112.7" cy="231.6" r="2"/><circle cx="118.5" cy="231.5" r="2"/><circle cx="129.8" cy="231.6" r="2"/><circle cx="136.5" cy="231.5" r="2"/><circle cx="147.0" cy="231.6" r="2"/><circle cx="153.7" cy="231.5" r="2"/><circle cx="164.1" cy="231.6" r="2"/><circle cx="170.8" cy="231.5" r="2"/><circle cx="181.2" cy="231.6" r="2"/><circle cx="188.0" cy="231.5" r="2"/><circle cx="198.5" cy="231.5" r="2"/><circle cx="205.1" cy="231.5" r="2"/><circle cx="215.6" cy="231.5" r="2"/><circle cx="239.4" cy="231.5" r="2"/><circle cx="250.8" cy="231.5" r="2"/><circle cx="273.8" cy="231.6" r="2"/><circle cx="285.1" cy="231.5" r="2"/><circle cx="290.9" cy="231.6" r="2"/><circle cx="302.2" cy="231.5" r="2"/><circle cx="308.0" cy="231.6" r="2"/><circle cx="319.5" cy="231.6" r="2"/><circle cx="325.3" cy="231.5" r="2"/><circle cx="336.6" cy="231.6" r="2"/><circle cx="428.0" cy="231.6" r="2"/><circle cx="451.9" cy="231.5" r="2"/><circle cx="462.3" cy="231.6" r="2"/><circle cx="469.0" cy="231.5" r="2"/><circle cx="479.4" cy="231.6" r="2"/><circle cx="486.1" cy="231.5" r="2"/><circle cx="496.7" cy="231.5" r="2"/><circle cx="503.3" cy="231.5" r="2"/><circle cx="513.8" cy="231.5" r="2"/><circle cx="520.4" cy="231.5" r="2"/><circle cx="101.1" cy="239.5" r="2"/><circle cx="107.0" cy="239.6" r="2"/><circle cx="118.4" cy="239.6" r="2"/><circle cx="124.2" cy="239.5" r="2"/><circle cx="141.4" cy="239.5" r="2"/><circle cx="152.7" cy="239.6" r="2"/><circle cx="158.5" cy="239.5" r="2"/><circle cx="169.8" cy="239.6" r="2"/><circle cx="175.6" cy="239.5" r="2"/><circle cx="186.9" cy="239.6" r="2"/><circle cx="193.7" cy="239.5" r="2"/><circle cx="204.1" cy="239.6" r="2"/><circle cx="210.8" cy="239.5" r="2"/><circle cx="221.2" cy="239.6" r="2"/><circle cx="227.9" cy="239.5" r="2"/><circle cx="238.4" cy="239.6" r="2"/><circle cx="245.1" cy="239.5" r="2"/><circle cx="255.6" cy="239.5" r="2"/><circle cx="262.2" cy="239.5" r="2"/><circle cx="272.8" cy="239.5" r="2"/><circle cx="279.4" cy="239.5" r="2"/><circle cx="296.5" cy="239.5" r="2"/><circle cx="307.9" cy="239.5" r="2"/><circle cx="313.8" cy="239.6" r="2"/><circle cx="325.1" cy="239.5" r="2"/><circle cx="330.9" cy="239.6" r="2"/><circle cx="342.2" cy="239.5" r="2"/><circle cx="348.0" cy="239.6" r="2"/><circle cx="410.9" cy="239.6" r="2"/><circle cx="416.7" cy="239.5" r="2"/><circle cx="428.0" cy="239.6" r="2"/><circle cx="434.7" cy="239.5" r="2"/><circle cx="445.1" cy="239.6" r="2"/><circle cx="451.9" cy="239.5" r="2"/><circle cx="462.3" cy="239.6" r="2"/><circle cx="469.0" cy="239.5" r="2"/><circle cx="479.4" cy="239.6" r="2"/><circle cx="486.1" cy="239.5" r="2"/><circle cx="496.7" cy="239.5" r="2"/><circle cx="118.3" cy="245.5" r="2"/><circle cx="124.2" cy="245.5" r="2"/><circle cx="141.4" cy="245.5" r="2"/><circle cx="152.5" cy="245.5" r="2"/><circle cx="158.5" cy="245.5" r="2"/><circle cx="169.7" cy="245.5" r="2"/><circle cx="175.6" cy="245.5" r="2"/><circle cx="187.1" cy="245.5" r="2"/><circle cx="193.4" cy="245.7" r="2"/><circle cx="204.2" cy="245.5" r="2"/><circle cx="210.6" cy="245.7" r="2"/><circle cx="221.3" cy="245.5" r="2"/><circle cx="296.5" cy="245.5" r="2"/><circle cx="307.9" cy="245.6" r="2"/><circle cx="313.9" cy="245.5" r="2"/><circle cx="325.0" cy="245.6" r="2"/><circle cx="342.1" cy="245.6" r="2"/><circle cx="348.2" cy="245.5" r="2"/><circle cx="359.3" cy="245.6" r="2"/><circle cx="365.3" cy="245.5" r="2"/><circle cx="376.5" cy="245.5" r="2"/><circle cx="382.4" cy="245.5" r="2"/><circle cx="393.6" cy="245.5" r="2"/><circle cx="399.6" cy="245.5" r="2"/><circle cx="410.7" cy="245.5" r="2"/><circle cx="416.7" cy="245.5" r="2"/><circle cx="428.1" cy="245.5" r="2"/><circle cx="434.5" cy="245.7" r="2"/><circle cx="445.3" cy="245.5" r="2"/><circle cx="118.2" cy="251.7" r="2"/><circle cx="124.3" cy="251.7" r="2"/><circle cx="135.4" cy="251.7" r="2"/><circle cx="141.4" cy="251.7" r="2"/><circle cx="152.5" cy="251.7" r="2"/><circle cx="158.5" cy="251.7" r="2"/><circle cx="169.6" cy="251.7" r="2"/><circle cx="175.7" cy="251.7" r="2"/><circle cx="186.9" cy="251.6" r="2"/><circle cx="193.4" cy="251.8" r="2"/><circle cx="204.1" cy="251.6" r="2"/><circle cx="210.6" cy="251.8" r="2"/><circle cx="296.5" cy="251.7" r="2"/><circle cx="307.7" cy="251.6" r="2"/><circle cx="313.8" cy="251.6" r="2"/><circle cx="324.8" cy="251.6" r="2"/><circle cx="330.9" cy="251.6" r="2"/><circle cx="342.0" cy="251.6" r="2"/><circle cx="348.0" cy="251.6" r="2"/><circle cx="359.1" cy="251.6" r="2"/><circle cx="365.2" cy="251.6" r="2"/><circle cx="376.4" cy="251.7" r="2"/><circle cx="382.5" cy="251.7" r="2"/><circle cx="393.6" cy="251.7" r="2"/><circle cx="399.6" cy="251.7" r="2"/><circle cx="410.7" cy="251.7" r="2"/><circle cx="416.7" cy="251.7" r="2"/><circle cx="428.0" cy="251.6" r="2"/><circle cx="434.5" cy="251.8" r="2"/><circle cx="445.1" cy="251.6" r="2"/><circle cx="124.2" cy="257.8" r="2"/><circle cx="135.5" cy="257.9" r="2"/><circle cx="175.6" cy="257.8" r="2"/><circle cx="186.9" cy="257.9" r="2"/><circle cx="193.7" cy="257.8" r="2"/><circle cx="204.1" cy="257.9" r="2"/><circle cx="307.9" cy="257.8" r="2"/><circle cx="313.8" cy="257.9" r="2"/><circle cx="342.2" cy="257.8" r="2"/><circle cx="348.0" cy="257.9" r="2"/><circle cx="359.3" cy="257.8" r="2"/><circle cx="365.2" cy="257.9" r="2"/><circle cx="376.6" cy="257.9" r="2"/><circle cx="382.4" cy="257.8" r="2"/><circle cx="393.7" cy="257.9" r="2"/><circle cx="399.6" cy="257.8" r="2"/><circle cx="410.9" cy="257.9" r="2"/><circle cx="416.7" cy="257.8" r="2"/><circle cx="428.0" cy="257.9" r="2"/><circle cx="136.7" cy="265.9" r="2"/><circle cx="148.1" cy="265.9" r="2"/><circle cx="153.9" cy="265.8" r="2"/><circle cx="165.2" cy="265.9" r="2"/><circle cx="171.1" cy="265.8" r="2"/><circle cx="182.4" cy="265.9" r="2"/><circle cx="188.2" cy="265.8" r="2"/><circle cx="303.5" cy="265.9" r="2"/><circle cx="310.2" cy="265.8" r="2"/><circle cx="320.6" cy="265.9" r="2"/><circle cx="327.3" cy="265.8" r="2"/><circle cx="337.9" cy="265.8" r="2"/><circle cx="344.5" cy="265.8" r="2"/><circle cx="355.0" cy="265.8" r="2"/><circle cx="361.6" cy="265.8" r="2"/><circle cx="372.2" cy="265.8" r="2"/><circle cx="378.7" cy="265.8" r="2"/><circle cx="389.3" cy="265.8" r="2"/><circle cx="395.9" cy="265.8" r="2"/><circle cx="165.1" cy="271.7" r="2"/><circle cx="303.6" cy="271.7" r="2"/><circle cx="320.7" cy="271.7" r="2"/><circle cx="327.1" cy="272.0" r="2"/><circle cx="337.9" cy="271.7" r="2"/><circle cx="344.5" cy="271.7" r="2"/><circle cx="355.0" cy="271.7" r="2"/><circle cx="361.6" cy="271.7" r="2"/><circle cx="372.2" cy="271.7" r="2"/><circle cx="327.1" cy="278.1" r="2"/><circle cx="337.9" cy="278.0" r="2"/><circle cx="344.4" cy="278.0" r="2"/><circle cx="355.0" cy="278.0" r="2"/><circle cx="361.6" cy="278.0" r="2"/><circle cx="372.2" cy="278.0" r="2"/></g></svg>
