<svg xmlns="http://www.w3.org/2000/svg" viewBox="0 0 800 600" role="img" aria-label="Placeholder mockup of the Ekyu selective noise cancellation controller">
  <defs>
    <linearGradient id="ek-bg" x1="0" y1="0" x2="1" y2="1">
      <stop offset="0" stop-color="#e4ecfa"/>
      <stop offset="1" stop-color="#eef3fb"/>
    </linearGradient>
  </defs>
  <rect width="800" height="600" fill="url(#ek-bg)"/>
  <g transform="translate(250 300)" fill="none" stroke="#6b4a9e" stroke-width="2.5" opacity="0.55">
    <circle r="60"/>
    <circle r="105"/>
    <circle r="150"/>
    <circle r="195"/>
    <circle r="240"/>
  </g>
  <g transform="translate(196 246)">
    <circle cx="54" cy="54" r="54" fill="#6b4a9e"/>
    <g stroke="#ffffff" stroke-width="4" stroke-linecap="round">
      <path d="M40 40v28M54 30v48M68 44v20"/>
    </g>
  </g>
  <g transform="translate(508 142)">
    <rect width="170" height="316" rx="28" fill="#ffffff" stroke="#c9d4e6" stroke-width="2"/>
    <rect x="64" y="16" width="42" height="7" rx="3.5" fill="#dbe4f1"/>
    <rect x="20" y="42" width="96" height="12" rx="6" fill="#2b4aa8"/>
    <rect x="20" y="64" width="130" height="8" rx="4" fill="#c9d4e6"/>
    <g transform="translate(20 92)">
      <rect width="130" height="86" rx="14" fill="#f2f5fa"/>
      <g fill="none" stroke="#6b4a9e" stroke-width="3" stroke-linecap="round">
        <path d="M18 56c10-28 18 10 26-18s16 26 26-6 18 16 26-4"/>
      </g>
      <rect x="18" y="20" width="56" height="8" rx="4" fill="#c9d4e6"/>
    </g>
    <g transform="translate(20 194)">
      <rect width="130" height="34" rx="17" fill="#eae3f6"/>
      <circle cx="113" cy="17" r="13" fill="#6b4a9e"/>
      <rect x="16" y="12" width="56" height="9" rx="4.5" fill="#4c5a79"/>
    </g>
    <g transform="translate(20 240)">
      <rect width="130" height="34" rx="17" fill="#f2f5fa"/>
      <circle cx="17" cy="17" r="13" fill="#c9d4e6"/>
      <rect x="42" y="12" width="66" height="9" rx="4.5" fill="#c9d4e6"/>
    </g>
  </g>
</svg>
