<svg xmlns="http://www.w3.org/2000/svg" viewBox="0 0 800 600" role="img" aria-label="Placeholder mockup of the Cosi household task board">
  <defs>
    <linearGradient id="co-bg" x1="0" y1="0" x2="0" y2="1">
      <stop offset="0" stop-color="#e2ebf9"/>
      <stop offset="1" stop-color="#eff3fb"/>
    </linearGradient>
  </defs>
  <rect width="800" height="600" fill="url(#co-bg)"/>
  <g transform="translate(96 108)">
    <rect width="608" height="384" rx="18" fill="#ffffff" stroke="#c9d4e6" stroke-width="2"/>
    <rect x="32" y="34" width="168" height="14" rx="7" fill="#2f7a8c"/>
    <rect x="32" y="60" width="260" height="10" rx="5" fill="#c9d4e6"/>
    <g transform="translate(32 100)">
      <rect width="168" height="250" rx="12" fill="#f5f9fb" stroke="#dbe4f1" stroke-width="2"/>
      <rect x="16" y="18" width="80" height="10" rx="5" fill="#4c5a79"/>
      <rect x="16" y="44" width="136" height="54" rx="10" fill="#ffffff" stroke="#dbe4f1" stroke-width="2"/>
      <rect x="28" y="58" width="72" height="9" rx="4.5" fill="#c9d4e6"/>
      <circle cx="132" cy="71" r="10" fill="#2f7a8c"/>
      <rect x="16" y="112" width="136" height="54" rx="10" fill="#ffffff" stroke="#dbe4f1" stroke-width="2"/>
      <rect x="28" y="126" width="94" height="9" rx="4.5" fill="#c9d4e6"/>
      <circle cx="132" cy="139" r="10" fill="#dbe4f1"/>
    </g>
    <g transform="translate(220 100)">
      <rect width="168" height="250" rx="12" fill="#f5f9fb" stroke="#dbe4f1" stroke-width="2"/>
      <rect x="16" y="18" width="96" height="10" rx="5" fill="#4c5a79"/>
      <rect x="16" y="44" width="136" height="54" rx="10" fill="#ffffff" stroke="#dbe4f1" stroke-width="2"/>
      <rect x="28" y="58" width="60" height="9" rx="4.5" fill="#c9d4e6"/>
      <circle cx="132" cy="71" r="10" fill="#2b4aa8"/>
    </g>
    <g transform="translate(408 100)">
      <rect width="168" height="250" rx="12" fill="#f5f9fb" stroke="#dbe4f1" stroke-width="2"/>
      <rect x="16" y="18" width="70" height="10" rx="5" fill="#4c5a79"/>
      <rect x="16" y="44" width="136" height="90" rx="10" fill="#ffffff" stroke="#dbe4f1" stroke-width="2"/>
      <g transform="translate(34 66)">
        <rect width="20" height="46" rx="6" fill="#2f7a8c" y="16"/>
        <rect x="32" width="20" height="62" rx="6" fill="#2b4aa8"/>
        <rect x="64" width="20" height="34" rx="6" fill="#c9d4e6" y="28"/>
      </g>
      <rect x="16" y="150" width="136" height="36" rx="18" fill="#2f7a8c"/>
      <rect x="44" y="163" width="80" height="10" rx="5" fill="#ffffff" opacity="0.85"/>
    </g>
  </g>
</svg>
