<svg xmlns="http://www.w3.org/2000/svg" viewBox="0 0 500 400" role="img" aria-label="Portrait placeholder">
  <defs>
    <linearGradient id="ptw" x1="0" y1="0" x2="1" y2="1">
      <stop offset="0" stop-color="#dce7f8"/>
      <stop offset="1" stop-color="#eff3fb"/>
    </linearGradient>
  </defs>
  <rect width="500" height="400" fill="url(#ptw)"/>
  <circle cx="250" cy="150" r="66" fill="#c9d4e6"/>
  <path d="M130 400c0-66 54-120 120-120s120 54 120 120z" fill="#c9d4e6"/>
  <g fill="none" stroke="#a9b8d2" stroke-width="1.5" stroke-linecap="round">
    <path d="M60 60c-14 44 10 76-8 116"/>
    <path d="M0 0c14-11 36-8 47 5-13 12-35 10-47-5z" transform="translate(58 86) rotate(-24) scale(0.6)"/>
    <path d="M0 0c14-11 36-8 47 5-13 12-35 10-47-5z" transform="translate(52 128) rotate(150) scale(-0.6 0.6)"/>
    <path d="M440 70c12 40-6 72 6 110"/>
  </g>
</svg>
